<svg id="Group_27" data-name="Group 27" xmlns="http://www.w3.org/2000/svg" width="103.939" height="61.259" viewBox="0 0 103.939 61.259">
  <g id="Group_26" data-name="Group 26">
    <path id="Path_19" data-name="Path 19" d="M1356.652,1576.877c-4.995,11.2-24.164,54.521-27.143,61.259H1308c-1.535-3.472-7.6-17.169-13.876-31.349,3.952-8.929,7.388-16.667,10.241-23.064,4.521,10.194,12.437,28.051,12.988,29.3l1.4,3.181,1.4-3.18c.723-1.638,13.615-30.72,16.025-36.148Z" transform="translate(-1252.713 -1576.877)" fill="#e3902b"/>
    <path id="Path_20" data-name="Path 20" d="M1229.253,1576.877l1.913,4.292c3.083,6.93,6.945,15.643,11.8,26.637,5.135,11.612,10.072,22.809,13.388,30.331h-20.433l-1.956-4.435c-3.481-7.889-7.664-17.361-11.81-26.726-5.855-13.225-10.244-23.1-13.376-30.1Z" transform="translate(-1208.783 -1576.877)" fill="#e3902b"/>
  </g>
</svg>
